<?xml version="1.0" standalone="no"?>
<!DOCTYPE svg PUBLIC "-//W3C//DTD SVG 20010904//EN"
 "http://www.w3.org/TR/2001/REC-SVG-20010904/DTD/svg10.dtd">
<svg version="1.0" xmlns="http://www.w3.org/2000/svg"
 width="512.000000pt" height="512.000000pt" viewBox="0 0 512.000000 512.000000"
 preserveAspectRatio="xMidYMid meet">
<metadata>
Created by potrace 1.11, written by Peter Selinger 2001-2013
</metadata>
<g transform="translate(0.000000,512.000000) scale(0.100000,-0.100000)"
fill="#000000" stroke="none">
<path d="M2245 4854 c-105 -50 -165 -146 -160 -256 4 -94 6 -98 170 -351 39
-59 111 -170 161 -248 l92 -140 -30 -137 c-16 -75 -33 -155 -38 -177 -4 -22
-16 -78 -26 -124 -18 -85 -25 -88 -37 -15 -19 115 -73 337 -89 369 -23 43
-424 521 -469 559 -54 45 -90 59 -164 62 -65 3 -80 0 -134 -27 -105 -53 -154
-132 -154 -249 -1 -97 12 -122 162 -308 64 -81 143 -179 174 -219 l57 -72 -1
-153 c0 -122 -3 -149 -12 -134 -29 45 -133 187 -188 256 -33 41 -77 98 -99
127 -81 106 -136 142 -232 150 -234 22 -390 -242 -255 -432 18 -24 77 -111
133 -192 87 -128 102 -157 113 -213 7 -36 15 -72 16 -80 42 -194 44 -219 44
-548 l1 -326 103 -211 c106 -214 154 -285 196 -285 21 0 21 -3 21 -200 l0
-200 -180 1 c-210 0 -250 -8 -279 -55 -26 -41 -26 -67 -2 -145 l19 -61 -278
-90 c-329 -107 -337 -112 -331 -213 1 -28 37 -87 53 -87 5 0 14 -5 21 -10 7
-6 102 -66 212 -133 l200 -122 1539 -3 1539 -2 34 22 c38 27 58 75 49 123 -7
37 -41 71 -149 149 -37 28 -64 53 -60 57 5 4 58 16 118 28 61 11 120 23 131
25 32 7 96 18 121 21 11 2 29 6 40 9 10 3 33 8 52 11 74 13 119 73 106 142 -8
44 -42 78 -116 116 -30 15 -83 43 -119 63 -36 20 -99 54 -140 75 l-75 39 -263
0 c-291 0 -318 -5 -346 -59 -9 -16 -16 -37 -16 -46 0 -12 -12 -15 -60 -15
l-60 0 0 280 0 280 33 0 c17 0 48 10 67 21 45 27 686 671 692 696 3 10 4 115
4 234 l-1 216 -134 179 c-161 214 -201 258 -264 290 -64 33 -159 42 -220 21
-49 -17 -61 -14 -47 12 5 9 16 32 23 51 13 32 18 35 50 34 50 -3 90 26 116 82
122 262 201 469 201 526 0 56 -155 633 -193 718 -43 98 -130 153 -242 154
-155 0 -274 -112 -280 -264 -1 -34 9 -94 27 -160 15 -58 30 -114 33 -125 2
-11 20 -80 39 -153 l34 -133 -58 -92 c-33 -51 -93 -146 -135 -212 l-77 -120 7
56 c3 31 7 65 9 75 2 11 7 48 11 84 3 36 9 79 11 95 3 17 7 72 9 122 6 117 1
128 -147 355 -62 96 -117 181 -123 190 -5 8 -17 26 -26 39 -9 13 -56 85 -104
159 -48 74 -103 152 -123 173 -73 75 -210 98 -307 51z"/>
</g>
</svg>
